<svg xmlns="http://www.w3.org/2000/svg" width="89.284" height="116.583" viewBox="0 0 89.284 116.583"><defs><style>.a{fill:#e6d449;}.b{fill:#188f2e;}.c{fill:#e6d449;}</style></defs><g transform="translate(0 0)"><path class="a" d="M717.718,813.557c0,.739.034,1.479-.01,2.216a2.4,2.4,0,0,1-.8,1.868,1.933,1.933,0,0,1-.534.325,4.354,4.354,0,0,1-2.53.115,2.2,2.2,0,0,1-1.77-2.278c-.055-1.542-.022-3.086-.031-4.63,0-.225.1-.3.315-.3.277.009.555.016.831,0,.322-.021.4.124.4.424-.013,1.346-.014,2.691,0,4.037a2.1,2.1,0,0,0,.161.88c.329.667.875.7,1.646.569.5-.083.772-.508.777-1.141q.017-2.095,0-4.19c0-.517.034-.573.536-.575,1.007,0,1.007,0,1.006,1.015q0,.831,0,1.662Z" transform="translate(-712.018 -703.529)"/><path class="a" d="M829.477,823.433c-.475,0-.95.008-1.424,0-.247-.006-.3.113-.256.32a1.018,1.018,0,0,0,.8.879,1.062,1.062,0,0,0,1.134-.368.717.717,0,0,1,.392-.207,2.355,2.355,0,0,1,.513-.006c.619.009.709.15.362.68a2.66,2.66,0,0,1-.7.731,2.7,2.7,0,0,1-3.358-.421,3.23,3.23,0,0,1-.578-2.623,2.3,2.3,0,0,1,1.329-1.926,2.428,2.428,0,0,1,3.555,1.941c.112,1,.1,1-.891,1Zm-.692-.919v0c.25,0,.5,0,.749,0s.313-.128.253-.357a1.023,1.023,0,0,0-1.988.1.317.317,0,0,0,.2.238A6.8,6.8,0,0,0,828.784,822.514Z" transform="translate(-805.753 -711.215)"/><path class="a" d="M985.893,823.1a2.578,2.578,0,0,1,2.582-2.823,2.8,2.8,0,1,1-2.582,2.823Zm3.906-.033c-.036-.233-.053-.471-.111-.7a1.172,1.172,0,0,0-1.052-.87,1.015,1.015,0,0,0-1.156.748,4.441,4.441,0,0,0-.087,1.4,1.138,1.138,0,0,0,1.461.988C989.464,824.47,989.78,823.933,989.8,823.067Z" transform="translate(-936.685 -711.244)"/><path class="a" d="M879.09,825.675a1.644,1.644,0,0,1-1.137-1.257c-.066-.249-.02-.417.3-.4a5.709,5.709,0,0,0,.633,0,.511.511,0,0,1,.6.356c.207.52,1.359.612,1.711.172.177-.222.04-.512-.316-.617-.417-.124-.842-.218-1.261-.335-.19-.053-.371-.139-.561-.191-1.284-.352-1.093-2.053-.346-2.625,1.083-.83,3.143-.471,3.663.488a1.889,1.889,0,0,1,.179.474c.052.225-.045.355-.292.349-.2,0-.4-.007-.594,0a.487.487,0,0,1-.558-.3,1.129,1.129,0,0,0-1.46-.172.318.318,0,0,0,.151.557c.457.162.936.262,1.4.414a4.39,4.39,0,0,1,.941.388,1.529,1.529,0,0,1,.265,2.157C881.718,826.181,879.49,825.795,879.09,825.675Z" transform="translate(-848.11 -711.276)"/><path class="a" d="M942.8,824.524c.125-.391.26-.779.373-1.173.189-.658.374-1.318.539-1.982a.385.385,0,0,1,.44-.346c.351.011.7,0,1.131,0-.132.436-.229.8-.351,1.152q-.774,2.239-1.563,4.473a9.944,9.944,0,0,1-.493,1.163c-.3.594-.893.586-1.442.616-.181.01-.508-.054-.527-.138a2.807,2.807,0,0,1,0-.892c.005-.049.193-.1.3-.113a.752.752,0,0,0,.727-1.068c-.474-1.355-.975-2.7-1.461-4.053-.1-.272-.174-.552-.27-.825-.084-.239.022-.316.242-.317a7.17,7.17,0,0,1,.908.01.5.5,0,0,1,.349.265c.321.987.613,1.983.915,2.976.025.081.062.158.094.237Z" transform="translate(-899.175 -711.847)"/><path class="a" d="M751.946,820.792a8.126,8.126,0,0,1,1.288-.516,1.64,1.64,0,0,1,2.012,1.648c.007,1.135,0,2.27.008,3.4,0,.268-.087.375-.359.391-1.046.06-1.046.067-1.048-.965,0-.739,0-1.478,0-2.217s-.219-1.049-.763-1.06a1.036,1.036,0,0,0-1.1,1.091c-.014.884-.023,1.769,0,2.652.011.389-.12.509-.5.5-1.1-.017-.94.066-.944-.918,0-1.345,0-2.69,0-4.034,0-.242.076-.381.339-.371a3.6,3.6,0,0,0,.475,0C751.7,820.367,751.975,820.4,751.946,820.792Z" transform="translate(-743.6 -711.209)"/><path class="a" d="M1088.635,821l.076.075a3.434,3.434,0,0,1,.247,1.654c-.011.578-.016,1.157,0,1.734.014.42.072.838.117,1.335a8.965,8.965,0,0,1-1.174-.02c-.125-.016-.22-.268-.294-.367a2.621,2.621,0,0,1-1.882.511,1.508,1.508,0,0,1-1.194-2.209,1.7,1.7,0,0,1,1.578-.991,6.968,6.968,0,0,0,1.194-.241.4.4,0,0,0,.128-.721,2.7,2.7,0,0,0-.854-.176.677.677,0,0,0-.665.447.512.512,0,0,1-.343.235,6.111,6.111,0,0,1-.668.01c-.279.017-.346-.116-.3-.361a1.555,1.555,0,0,1,1-1.263A3.1,3.1,0,0,1,1088.635,821Zm-1.084,2.36c-.444.1-.869.174-1.278.3a.667.667,0,0,0-.467.867c.106.364.361.5.8.429C1087.39,824.823,1087.733,824.273,1087.551,823.358Z" transform="translate(-1017.5 -711.354)"/><path class="a" d="M1052.565,815.076c0-.845-.009-1.689,0-2.534,0-.272-.077-.379-.359-.367-.474.019-.95,0-1.425.011-.24.006-.342-.1-.338-.325,0-.026,0-.053,0-.079.022-1.079-.144-.905.885-.912,1.465-.009,2.93.012,4.395-.01.38-.006.467.119.455.473-.033.928.155.85-.837.846-.251,0-.5,0-.752,0-.554,0-.553,0-.553.541q0,2.375,0,4.751c0,.549,0,.549-.531.552-.943.005-.943.005-.942-.928q0-1.01,0-2.019Z" transform="translate(-989.648 -703.516)"/><path class="a" d="M798.716,824.638c.315-1.086.641-2.169.938-3.26.07-.258.183-.341.437-.328.36.018.721,0,1.152,0l-.65,1.839c-.372,1.055-.751,2.108-1.112,3.167a.409.409,0,0,1-.452.33c-1.1,0-1.092.01-1.465-1.02-.457-1.263-.921-2.524-1.384-3.785-.187-.509-.17-.535.365-.536,1.012,0,1.02,0,1.306.948.212.706.4,1.419.6,2.129.049.174.112.344.168.516Z" transform="translate(-780.956 -711.877)"/><path class="a" d="M1019.646,813.186c0,1.276,0,2.473,0,3.67,0,.611.005.61-.587.615-.906.007-.814.028-.814-.81,0-1.028-.009-2.056,0-3.084,0-.282-.069-.425-.375-.392-.426.045-.375-.282-.374-.53s-.039-.57.388-.52c.284.033.367-.117.361-.377-.031-1.424,1.01-1.671,2.02-1.549.395.047.245.575.276.892.07.2-.1.353-.366.323a.468.468,0,0,0-.362.087.761.761,0,0,0-.143.452c0,.057.188.155.3.164.544.047.76.343.575.865a.422.422,0,0,1-.294.186A3.866,3.866,0,0,1,1019.646,813.186Z" transform="translate(-962.616 -702.96)"/><path class="a" d="M923.783,815.382c0,.978-.012,1.925.017,2.87,0,.106.24.292.367.29.375-.005.453.172.413.487a1.5,1.5,0,0,0,0,.277c.016.246-.082.371-.343.359s-.528,0-.791-.01a1.051,1.051,0,0,1-1.127-1.182q-.013-1.365,0-2.73c0-.293-.067-.464-.4-.4-.233.042-.292-.091-.307-.3-.043-.571-.023-.6.494-.75a.405.405,0,0,0,.2-.2.567.567,0,0,0,.013-.234c.011-.963.286-1.175,1.259-.944a.375.375,0,0,1,.194.276,4.479,4.479,0,0,1,0,.751c-.016.27.086.373.363.382.158.005.43.1.446.189a2.382,2.382,0,0,1-.053.773c-.006.034-.159.053-.245.063C924.128,815.364,923.973,815.369,923.783,815.382Z" transform="translate(-883.935 -705.131)"/><path class="a" d="M783.962,823.706c0-.751.01-1.5-.005-2.252-.006-.29.088-.4.384-.39,1.138.026,1.066-.191,1.066,1.043,0,1.251-.009,2.5.006,3.754,0,.364-.092.519-.491.51-.958-.021-.958,0-.959-.966Q783.961,824.555,783.962,823.706Z" transform="translate(-771.015 -711.888)"/><path class="a" d="M911.5,823.655c0,.764-.008,1.528,0,2.292,0,.246-.063.371-.327.364a7.238,7.238,0,0,1-.824,0,.411.411,0,0,1-.248-.309c-.015-1.541-.007-3.082-.008-4.623,0-.256.092-.373.373-.38,1.027-.023,1.027-.033,1.028,1q0,.829,0,1.659Z" transform="translate(-874.505 -711.829)"/><path class="a" d="M784.632,811.858c-.722-.006-.684.1-.685-.671,0-.118.005-.237,0-.355-.016-.245.078-.376.34-.355.078.006.157,0,.236,0,.984.01.866-.122.886.884.008.378-.117.545-.5.5A2.308,2.308,0,0,0,784.632,811.858Z" transform="translate(-771.004 -703.2)"/><path class="a" d="M910.745,811.853a1.354,1.354,0,0,0-.2,0c-.371.055-.511-.082-.5-.474.032-1.061-.129-.893.932-.909.5-.008.5,0,.489.491,0,.039,0,.079,0,.118C911.5,811.847,911.5,811.847,910.745,811.853Z" transform="translate(-874.462 -703.196)"/><path class="a" d="M1184.837,814.281c.08-.1,1.706-1.884,1.748-1.947-.089-.043-.177-.119-.267-.122-.408-.013-.819-.022-1.226,0-.106.007-1.543,1.471-1.853,1.722.006-.05,0-3.564,0-3.564s-.762.018-1.064,0c-.343-.015-.461.139-.462.474,0,.643,0,5.616,0,6.495,0,.214.084.316.3.314.342,0,.882.014,1.224.005,0,0,.019-1.66.04-1.743l.461-.35c.175.212.952,1.554,1.187,2a.274.274,0,0,0,.205.085c.42.01.842.019,1.261,0a.3.3,0,0,0,.218-.193A25.017,25.017,0,0,0,1184.837,814.281Z" transform="translate(-1097.337 -703.119)"/><path class="a" d="M1153.567,821.517c0-1,0-1-.99-1-.574,0-.573,0-.5.578a20.251,20.251,0,0,1-.392,3.546,1.3,1.3,0,0,1-1.29.013c-.057-.191-.177-2.633-.18-3.663q-.052-.223,0,0s.078-.448-.221-.467a6.174,6.174,0,0,0-.985.007c-.112.011-.3.148-.3.237-.031.465-.016.933-.015,1.4,0,.231,0,.464.011.694.034.6.048,1.2.11,1.791h-.011l.014.024c.014.136.031.272.051.407.036.233.652.828.706.85a2.289,2.289,0,0,0,1.416.142c.106-.026.816-.134.818-.514l.008-.013c.081.037.226.065.232.111.045.377.32.319.566.321.145,0,.289-.005.434-.006.506,0,.525-.021.525-.544Q1153.568,823.477,1153.567,821.517Z" transform="translate(-1070.242 -711.436)"/><path class="a" d="M860.463,821.765c.128-.153.2-.237.268-.319a1.334,1.334,0,0,1,.952-.572c.066,0,.15-.026.195.005.382.268.13,1.291-.081,1.286a1.733,1.733,0,0,0-.509.04,1.027,1.027,0,0,0-.82,1.107q-.02,1.187,0,2.374c.006.312-.074.462-.419.447-1.01-.042-.854.151-.858-.853-.005-1.279.008-2.559-.008-3.838,0-.33.1-.465.428-.417a.833.833,0,0,0,.237,0C860.218,820.975,860.413,821.6,860.463,821.765Z" transform="translate(-832.732 -711.725)"/><path class="a" d="M1117.657,812.537h0c.014-.022-.1-.159-.149-.2,0-.52.007-1.04-.009-1.56a1.11,1.11,0,0,0-.14-.348l0,0c-.375-.3-1.32-.129-1.344-.126,0,.328.054,5.857.07,5.921-.021.353-.033.855-.058,1.279h1.063c.059-.158.1-.648.19-.512a2.478,2.478,0,0,0,1.276.722c2.583.04,2.523-1.817,2.576-2.335C1121.163,815.043,1121.407,811.648,1117.657,812.537Zm1.472,4.028a1.138,1.138,0,0,1-1.461-.988,4.447,4.447,0,0,1,.087-1.4,1.015,1.015,0,0,1,1.156-.748,1.172,1.172,0,0,1,1.052.87c.058.227.075.465.111.7C1120.056,815.867,1119.74,816.4,1119.13,816.565Z" transform="translate(-1043.437 -703.013)"/><path class="a" d="M939.671,740.447a2.1,2.1,0,0,0-.3.2,3.3,3.3,0,0,1-3.6.068,3.613,3.613,0,0,1-1.278-1.908,5.153,5.153,0,0,1,.067-3.231,3.11,3.11,0,0,1,3.253-2.186c1.228-.005,2.455.006,3.682-.008.347,0,.38.177.378.449-.006,1.452,0,2.9,0,4.356,0,.039,0,.079,0,.119,0,1.25.467,1.722,1.721,1.732,1.294.01,2.588.032,3.88-.007a7.218,7.218,0,0,0,1.585-.286c.46-.121.487-.33.11-.63a6.143,6.143,0,0,0-2.419-1.3c-.3-.069-.388-.21-.363-.489.015-.17,0-.343,0-.514,0-1-.007-1.014.89-1.427a7.707,7.707,0,0,1,8.125.682c.289.2.312.37.148.641a10.087,10.087,0,0,1-2.34,2.652,2.1,2.1,0,0,0-.284.349,2.214,2.214,0,0,0,.42.234,2.06,2.06,0,0,0,.581.089c1.557.015,3.114.016,4.671.03.317,0,.451-.087.474-.443.16-2.51,2.063-3.541,4.207-3.273a3.544,3.544,0,0,1,1.914.78,3.61,3.61,0,0,1,1.179,3.355,3.353,3.353,0,0,1-1.773,2.693,2.7,2.7,0,0,1-.927.32,3.917,3.917,0,0,1-3.787-1.04.886.886,0,0,0-.594-.221c-1.821-.017-3.643-.031-5.464,0a3.827,3.827,0,0,1-2.667-.9.418.418,0,0,0-.386-.048,5.067,5.067,0,0,1-2.776.915c-1.952.044-3.907.034-5.86.01a2.6,2.6,0,0,1-2.3-1.554c-.031-.057-.06-.115-.093-.171C939.738,740.471,939.72,740.469,939.671,740.447Zm-.109-5.036c.006-.227-.074-.346-.316-.343-.392.006-.785-.009-1.177,0a1.361,1.361,0,0,0-1.185.8,2.765,2.765,0,0,0-.072,2.616,1.273,1.273,0,0,0,1.2.824,1.229,1.229,0,0,0,1.3-.935A19.779,19.779,0,0,0,939.562,735.412Zm24.612,4.547a6.462,6.462,0,0,0-.142-.891,1.248,1.248,0,0,0-1.369-.95,1.272,1.272,0,0,0-1.25.953,2.58,2.58,0,0,0,.048,1.851,1.382,1.382,0,0,0,2.176.482A1.862,1.862,0,0,0,964.173,739.959Zm-14.906-3.191c.636.533,1.227,1.04,1.837,1.523a.4.4,0,0,0,.372-.024c.436-.336.853-.7,1.272-1.054.207-.176.136-.33-.075-.419a6.862,6.862,0,0,0-.781-.271A3.881,3.881,0,0,0,949.267,736.768Z" transform="translate(-894.33 -639.952)"/><path class="a" d="M802.445,749.258c-.516,0-.971.006-1.426,0a3.366,3.366,0,0,1-2.057-.706,3.615,3.615,0,0,1-1.352-3.515,3.226,3.226,0,0,1,2.375-2.88,3.493,3.493,0,0,1,4.7,2.962,13.684,13.684,0,0,1,.061,1.58c0,.279.071.4.378.394.844-.019,1.689,0,2.534-.011.741-.01,1.126-.316,1.167-1.059.064-1.17.065-2.346.056-3.519,0-.4.105-.543.512-.514.473.033.95.017,1.425,0,.231-.006.347.061.34.308-.046,1.461-.071,2.922-.142,4.381-.016.33.049.406.365.4,1-.015,2.005,0,3.008,0,.808,0,1.216-.346,1.247-1.155.043-1.146.042-2.294.036-3.44,0-.472-.009-.494.465-.5s.924.01,1.385,0c.276-.008.4.071.4.379-.015,1.346.022,2.693-.019,4.038a2.731,2.731,0,0,1-1.8,2.677,3.563,3.563,0,0,1-1.24.173c-3.233.012-6.466.005-9.7,0-.273,0-.474.019-.543.358a2.848,2.848,0,0,1-2.794,2.246c-1.014.1-1.017.091-1.009-.927,0-.263-.072-.587.054-.768.1-.145.452-.116.691-.166A1.044,1.044,0,0,0,802.445,749.258Zm.024-3.182a6.2,6.2,0,0,0-.006-.829,1.325,1.325,0,0,0-2-1.026,1.62,1.62,0,0,0-.543,1.8,1.324,1.324,0,0,0,1.364,1.086C802.486,747.124,802.486,747.124,802.469,746.076Z" transform="translate(-782.184 -646.998)"/><path class="a" d="M1130.729,735.306c-2.058,0-4.117,0-6.175,0a2.378,2.378,0,0,1-2.45-1.382,3.279,3.279,0,0,1-.244-1.228c-.022-2.454-.007-4.908-.019-7.363,0-.3.1-.388.388-.375a12.536,12.536,0,0,0,1.385,0c.373-.024.5.082.494.477-.021,1.979-.01,3.958-.009,5.938,0,.145,0,.291.009.435a1.163,1.163,0,0,0,1.127,1.24,3.7,3.7,0,0,0,.666.076q4.314.009,8.629.005c.576,0,.62-.071.494-.653a3.2,3.2,0,0,0-4.156-2.314,9.5,9.5,0,0,0-1.455.762c-.229.141-.339.123-.479-.086-.22-.328-.447-.653-.695-.96-.193-.24-.153-.405.068-.6a5.531,5.531,0,0,1,4.466-1.373,5.043,5.043,0,0,1,2.975,1.318,5.4,5.4,0,0,1,1.343,2.242,10.092,10.092,0,0,1,.409,3.593c-.006.294-.217.243-.395.243l-5.779,0h-.594Z" transform="translate(-1048.22 -633.037)"/><path class="a" d="M725.607,729.221c0,1.174.005,2.349,0,3.523a2.367,2.367,0,0,1-2.514,2.545q-3.226.025-6.453-.008a5.6,5.6,0,0,1-3.117-.866,3.706,3.706,0,0,1-1.6-3.033c-.066-.985-.012-1.979-.026-2.968,0-.29.095-.4.39-.392.474.017.951.017,1.425,0,.31-.014.42.093.413.407-.017.831-.008,1.663-.008,2.494a1.88,1.88,0,0,0,1.894,2.086c1.948.086,3.9.108,5.85.086,1.118-.013,1.516-.51,1.519-1.672.006-1.992.008-3.985-.007-5.978,0-.371.092-.526.488-.5a11.3,11.3,0,0,0,1.306,0c.318-.012.446.095.442.431C725.6,726.661,725.608,727.941,725.607,729.221Z" transform="translate(-711.893 -633.029)"/><path class="a" d="M738.826,732.971c0-.2,0-.409,0-.614a1.753,1.753,0,0,1,2.4-1.705.951.951,0,0,1,.445.241,5.742,5.742,0,0,1,.432.755c-.287.15-.568.314-.867.437-.06.025-.179-.122-.281-.167-.167-.073-.4-.227-.5-.168a.768.768,0,0,0-.332.512c-.063.531.107.686.636.688.37,0,.74-.006,1.109.009.1,0,.289.067.294.118a7.981,7.981,0,0,1,.045,1.06c0,.042-.167.116-.256.116-1.214.009-2.428.014-3.642,0-.1,0-.2-.175-.283-.28-.026-.032-.006-.1,0-.155C738.044,733.007,737.859,733.01,738.826,732.971Z" transform="translate(-733.322 -637.62)"/><path class="a" d="M945.145,716.765c-1.193-.015-1.033.173-1.035-1.051,0-.956-.12-.863.863-.864.289,0,.579,0,.868,0,.226,0,.331.08.317.332-.024.417-.018.837-.01,1.255,0,.268-.132.34-.37.329C945.566,716.757,945.356,716.765,945.145,716.765Z" transform="translate(-902.402 -624.748)"/><path class="a" d="M961.85,714.845c1,0,1,0,.99,1-.008.912-.008.912-.924.909-1.095,0-1.1,0-1.1-1.111,0-.868-.142-.809.793-.8Z" transform="translate(-916.11 -624.743)"/><path class="a" d="M900.019,726.888C899,726.9,899,726.9,899,725.874c0-.913,0-.913.922-.91a6.047,6.047,0,0,1,.828.013.4.4,0,0,1,.264.273c.029.419,0,.842.013,1.263.006.271-.111.386-.377.376C900.44,726.881,900.229,726.888,900.019,726.888Z" transform="translate(-865.399 -633.04)"/><path class="a" d="M883.327,725c1.192.014,1.023-.166,1.025,1.022,0,1,.127.9-.914.9-1.09,0-1.09,0-1.092-1.08,0-.838,0-.838.823-.842Z" transform="translate(-851.734 -633.073)"/><path class="a" d="M861.794,788.662c-.936,0-.936,0-.984-.925-.051-1-.051-1,.976-1s1.042,0,1.029,1.024.148.888-.9.9Z" transform="translate(-834.053 -683.73)"/><path class="a" d="M1174.982,788.646c-1.193-.015-1.032.173-1.035-1.051,0-.956-.12-.863.863-.864.29,0,.579,0,.868,0,.227,0,.331.08.317.332-.024.417-.018.836-.01,1.255,0,.269-.132.34-.37.329C1175.4,788.639,1175.192,788.646,1174.982,788.646Z" transform="translate(-1090.963 -683.72)"/><path class="a" d="M909.4,638.542a2.962,2.962,0,0,1-.246-.575.414.414,0,0,1,.121-.36,2.831,2.831,0,0,1,2.5-.283,1.814,1.814,0,0,1,.906,2.694,14.505,14.505,0,0,1-1.531,1.839,5.3,5.3,0,0,1-.435.405l.049.1c.149.01.3.028.449.028.527,0,1.054,0,1.582,0,.23,0,.348.085.328.326a1.293,1.293,0,0,0,0,.277c.046.34-.078.458-.436.45-1.067-.025-2.135-.019-3.2-.006-.3,0-.383-.1-.388-.389a1.39,1.39,0,0,1,.474-1.034c.635-.662,1.237-1.356,1.83-2.056a1.211,1.211,0,0,0,.237-.577c.13-.832-.526-1.349-1.42-1.124C909.952,638.328,909.7,638.438,909.4,638.542Z" transform="translate(-873.681 -560.998)"/><path class="a" d="M992.806,640.132a2.328,2.328,0,0,1,1.7.321,2.041,2.041,0,0,1,.756,2.238,1.938,1.938,0,0,1-1.817,1.439c-1.789.09-2.412-1.256-2.184-2.76a5.277,5.277,0,0,1,2.241-3.413c.32-.244.433.043.59.223s.236.34-.045.534A3.391,3.391,0,0,0,992.806,640.132Zm-.488,1.741a1.224,1.224,0,0,0,1.076,1.288,1.011,1.011,0,0,0,.918-.962,1.183,1.183,0,0,0-1.234-1.076C992.528,641.12,992.316,641.33,992.318,641.873Z" transform="translate(-941.052 -561.588)"/><path class="a" d="M968.307,638.614a1.72,1.72,0,0,0-3.332,0,5.048,5.048,0,0,0,.05,3.895,1.7,1.7,0,0,0,3.231,0A5.048,5.048,0,0,0,968.307,638.614Zm-.763,3.3a.907.907,0,0,1-1.806,0,4.405,4.405,0,0,1-.028-2.739.931.931,0,0,1,1.861,0A4.4,4.4,0,0,1,967.544,641.913Z" transform="translate(-919.225 -561.144)"/><path class="a" d="M940,638.614a1.72,1.72,0,0,0-3.332,0,5.049,5.049,0,0,0,.05,3.895,1.7,1.7,0,0,0,3.231,0A5.048,5.048,0,0,0,940,638.614Zm-.763,3.3a.907.907,0,0,1-1.806,0,4.4,4.4,0,0,1-.028-2.739.931.931,0,0,1,1.862,0A4.4,4.4,0,0,1,939.24,641.913Z" transform="translate(-896.004 -561.144)"/><g transform="translate(0.044 0)"><path class="b" d="M720.667,229.92c.215.206,14.293,12.973,16.72,15.161q1.908,1.72,3.812,3.446c.093.085.214.205.218.313.02.653.01,1.306.01,2.021a4.261,4.261,0,0,1-.437-.122c-2.764-1.141-25.71-10.607-26.257-10.85-.023.049,17.28,9.368,20.06,10.846q3.106,1.652,6.216,3.3a.751.751,0,0,1,.4,1,.4.4,0,0,1-.338.148c-.692-.089-28.471-4.115-28.537-4.112-.277.014-.363-.147-.388-.379,0-.094.03-37.332.081-37.545.541.217,26.35,11.67,28.116,12.357a1.475,1.475,0,0,1,1.105,1.692c-.073,2.913-.038,9.285-.142,9.6-.315-.377-11.856-14.384-11.913-14.345.138.177,11.86,17.7,11.929,17.8.031.567.093,4.33.093,5.086l-.385-.059m-19.659-14.673" transform="translate(-712.139 -213.14)"/><path class="b" d="M712.57,486.551c-.322-.024-.4.12-.4.414.009.415-.028,31.454-.028,31.626l.12.312c2.435-.821,13.653-4.683,15.87-5.446.074-.076,12.548-14.647,12.985-15.122a1.169,1.169,0,0,0,.331-.89c-.026-.777.035-2.56.013-2.677-.11.049-24.25,14.256-24.405,14.359-.032-.048,21.786-15.7,23.879-17.195a1.473,1.473,0,0,0,.378-1.817c-.449.126-27.953,7.9-28.242,7.862-.012-.042,27.389-10.738,28.03-11.007a1.36,1.36,0,0,0,.372-.687c-.044-.219-.178-.271-.4-.27C740.46,486.018,712.729,486.563,712.57,486.551Z" transform="translate(-712.143 -437.009)"/><path class="b" d="M712.486,427.421v10.637c.78-.084,27.51-3.116,28.753-3.271.2-.025.457.035.47-.329s-.229-.395-.473-.45c-1.812-.415-26.989-6.247-28.426-6.584A1.548,1.548,0,0,0,712.486,427.421Z" transform="translate(-712.424 -388.932)"/><path class="b" d="M812,583.657l-.012.013.237.306c.041-.011,10.371-3.681,10.611-3.745a.516.516,0,0,0,.458-.594c-.018-2.159-.021-6.648-.027-6.753C823.036,573.016,812.209,583.452,812,583.657Z" transform="translate(-794.054 -508.279)"/></g><g transform="translate(59.937 0)"><path class="b" d="M1046.1,245.267l-.384.059c0-.756.062-4.519.093-5.086.069-.094,11.791-17.622,11.929-17.8-.057-.039-11.6,13.968-11.913,14.345-.1-.312-.069-6.683-.142-9.6a1.474,1.474,0,0,1,1.1-1.692c1.766-.687,27.575-12.14,28.116-12.357.051.213.08,37.451.081,37.545-.025.233-.111.394-.388.379-.067,0-27.845,4.023-28.537,4.112a.4.4,0,0,1-.338-.148.751.751,0,0,1,.4-1q3.11-1.645,6.216-3.3c2.78-1.478,20.083-10.8,20.059-10.846-.547.243-23.493,9.709-26.257,10.85a4.243,4.243,0,0,1-.437.122c0-.715-.01-1.368.01-2.021,0-.107.124-.228.218-.313q1.9-1.728,3.812-3.446c2.427-2.188,16.5-14.955,16.719-15.161m-.7.675" transform="translate(-1045.653 -213.14)"/><path class="b" d="M1074.551,486.551c.322-.024.4.12.4.414-.009.415.028,31.454.028,31.626l-.12.312c-2.434-.821-13.653-4.683-15.87-5.446-.074-.076-12.548-14.647-12.985-15.122a1.169,1.169,0,0,1-.331-.89c.026-.777-.035-2.56-.013-2.677.11.049,24.25,14.256,24.405,14.359.032-.048-21.787-15.7-23.879-17.195a1.472,1.472,0,0,1-.377-1.817c.449.126,27.953,7.9,28.242,7.862.012-.042-27.389-10.738-28.03-11.007a1.358,1.358,0,0,1-.372-.687c.044-.219.178-.271.4-.27C1046.661,486.018,1074.392,486.563,1074.551,486.551Z" transform="translate(-1045.645 -437.009)"/><path class="b" d="M1075.128,427.421v10.637c-.78-.084-27.51-3.116-28.753-3.271-.2-.025-.457.035-.47-.329s.229-.395.473-.45c1.812-.415,26.99-6.247,28.426-6.584A1.547,1.547,0,0,1,1075.128,427.421Z" transform="translate(-1045.858 -388.932)"/><path class="b" d="M1057.471,583.657l.012.013-.237.306c-.041-.011-10.37-3.681-10.611-3.745a.515.515,0,0,1-.458-.594c.018-2.159.021-6.648.027-6.753C1046.432,573.016,1057.26,583.452,1057.471,583.657Z" transform="translate(-1046.082 -508.279)"/></g><path class="c" d="M916.974,324.406c0-.324,0-.627-.3-.843-.059-.042-9.685-8.947-11.345-10.457-.241-.219-.393-.3-.568-.236-.175-.06-.326.017-.568.236-1.661,1.51-11.287,10.415-11.345,10.457-.3.216-.3.519-.3.843,0,13.54,0,40.986,0,41.223.562-.193,4.182-1.355,4.358-1.469a.64.64,0,0,0,.238-.445c.03-.487.012-25.536-.009-37.572,0-.463,6.675-6.283,7.625-7,.95.717,7.626,6.537,7.625,7-.022,12.036-.039,37.086-.01,37.572a.642.642,0,0,0,.238.445c.176.115,3.8,1.276,4.358,1.469C916.973,365.392,916.971,337.947,916.974,324.406Z" transform="translate(-860.106 -294.943)"/><path class="a" d="M987.7,245q.154-.747.308-1.494c.116-.567.236-1.134.346-1.7a.314.314,0,0,1,.381-.293c.313.018.628,0,1.031,0-.117.536-.213,1.017-.327,1.493-.324,1.342-.659,2.682-.98,4.025-.051.211-.134.327-.369.312a2.986,2.986,0,0,0-.711.005c-.463.085-.594-.187-.681-.55-.391-1.624-.78-3.248-1.185-4.868-.08-.319-.016-.424.323-.423.856,0,.862-.009,1.056.8.184.768.354,1.539.536,2.308a3.671,3.671,0,0,0,.134.384Z" transform="translate(-936.351 -236.413)"/><path class="a" d="M927.744,244.232a1.361,1.361,0,0,1-.714-1.119,1.551,1.551,0,0,1,1.54-1.579c.579-.035,1.161-.007,1.742-.015.237,0,.344.1.319.334,0,.026,0,.053,0,.079.009.659.009.658-.635.658-.3,0-.607,0-.911,0-.443.009-.646.187-.656.565a.572.572,0,0,0,.657.653c.353-.007.533.06.532.472s-.131.536-.528.527c-.523-.012-.8.242-.809.66a.753.753,0,0,0,.832.8c.462.007.924.009,1.386,0,.214-.006.324.057.316.287-.008.247,0,.5,0,.807a10.984,10.984,0,0,1-2.812-.18,1.721,1.721,0,0,1-.925-2.353A3.12,3.12,0,0,1,927.744,244.232Z" transform="translate(-888.279 -236.42)"/><path class="a" d="M956.114,245.948c.1-.9.147-1.813.322-2.7a2.057,2.057,0,0,1,2.111-1.725c.369-.013.739.005,1.108-.012.28-.013.368.106.367.374,0,.983.069.886-.83.858-1.11-.034-1.548.521-1.632,1.132a6.288,6.288,0,0,0-.061.788c-.007.791-.015,1.583.008,2.374.007.232-.048.321-.271.309h-.04c-1.006.037-1.006.037-1.006-.955v-.435Z" transform="translate(-912.255 -236.417)"/><path class="a" d="M913.553,247.378h-1.3c0-1.575,0-3.114,0-4.653,0-.089,0-.215.059-.259.368-.3.75-.583,1.127-.871l.112.083Z" transform="translate(-876.271 -236.484)"/></g></svg>